<svg width="23" height="20" viewBox="0 0 23 20" fill="none" xmlns="http://www.w3.org/2000/svg">
<path d="M21.3219 1.96468C20.1875 0.697724 18.6137 0 16.8906 0C14.4672 0 12.9329 1.42463 12.0725 2.61978C11.8493 2.92991 11.6594 3.24088 11.5 3.5335C11.3406 3.24088 11.1507 2.92991 10.9275 2.61978C10.0671 1.42463 8.53282 0 6.10938 0C4.38626 0 2.81251 0.697768 1.67806 1.96472C0.595978 3.17332 0 4.79197 0 6.52248C0 8.4062 0.747186 10.1582 2.35144 12.0362C3.78521 13.7146 5.84789 15.4447 8.23643 17.448C9.12646 18.1946 10.0469 18.9666 11.0267 19.8104L11.0562 19.8358C11.1832 19.9453 11.3416 20 11.5 20C11.6584 20 11.8168 19.9453 11.9438 19.8358L11.9733 19.8104C12.9531 18.9666 13.8735 18.1946 14.7637 17.448C17.1521 15.4447 19.2148 13.7146 20.6486 12.0362C22.2528 10.1582 23 8.4062 23 6.52248C23 4.79197 22.404 3.17332 21.3219 1.96468ZM13.8895 16.4384C13.1223 17.0819 12.3326 17.7442 11.5 18.4567C10.6674 17.7443 9.87774 17.082 9.11034 16.4383C4.43581 12.5176 1.34766 9.9274 1.34766 6.52248C1.34766 5.11509 1.82405 3.8079 2.68911 2.84174C3.5641 1.86462 4.77874 1.32647 6.10938 1.32647C7.95697 1.32647 9.1513 2.44681 9.82783 3.38666C10.4347 4.22959 10.7513 5.07932 10.8593 5.4055C10.9497 5.67853 11.2083 5.86331 11.5 5.86331C11.7917 5.86331 12.0503 5.67853 12.1407 5.4055C12.2487 5.07932 12.5653 4.22959 13.1722 3.38661C13.8487 2.44681 15.043 1.32647 16.8906 1.32647C18.2213 1.32647 19.4359 1.86462 20.3108 2.84174C21.1759 3.8079 21.6523 5.11509 21.6523 6.52248C21.6523 9.9274 18.5642 12.5176 13.8895 16.4384Z" fill="#403B3B"/>
</svg>
