<svg width="137" height="30" viewBox="0 0 137 30" fill="none" xmlns="http://www.w3.org/2000/svg">
<g clip-path="url(#clip0_1933_2217)">
<path d="M9.57155 20.4578V19.8316V19.2537V0H0V28.7021H37.3667V20.4578H10.1785H9.57155Z" fill="#403B3B"/>
<path d="M59.7812 27.9488L50.9775 0H41.5182L51.114 28.6991H59.5475V28.7021H68.1176L77.9593 0H68.5121L59.7812 27.9488Z" fill="#403B3B"/>
<path d="M113.723 -0.000201102V7.26079H128.272C128.248 9.39082 127.886 11.5036 127.198 13.5204C126.591 15.3121 125.584 16.9427 124.251 18.2884C122.896 19.6209 121.261 20.6376 119.465 21.2654C117.375 21.9855 115.168 22.3097 112.959 22.2215C110.045 22.2215 107.531 21.6365 105.414 20.4667C103.343 19.3355 101.573 17.7253 100.255 15.7713C98.887 13.7279 97.8867 11.4622 97.2995 9.07604C96.6597 6.58086 96.3375 4.01531 96.3405 1.4399C96.3405 0.95583 96.3648 0.471763 96.386 -0.00927734H86.8296C86.8084 0.474789 86.769 0.949779 86.769 1.4399C86.7435 5.20352 87.3529 8.94464 88.5716 12.5069C89.6929 15.8335 91.4443 18.9146 93.7306 21.5831C96.0003 24.2031 98.8095 26.305 101.967 27.7459C105.204 29.2465 108.868 29.9978 112.959 29.9998C127.222 29.9998 129.798 12.0651 129.798 10.3921H130.688L130.876 28.711H137V-0.000201102H113.723Z" fill="#403B3B"/>
</g>
<defs>
<clipPath id="clip0_1933_2217">
<rect width="137" height="30" fill="white"/>
</clipPath>
</defs>
</svg>
