<svg width="61" height="56" viewBox="0 0 61 56" fill="none" xmlns="http://www.w3.org/2000/svg">
<path d="M44.2245 0C38.7599 0.00845177 33.6409 2.67772 30.4995 7.15567C27.3582 2.67772 22.2391 0.00845177 16.7745 0C7.83797 0 -0.000488281 8.32699 -0.000488281 17.8183C-0.000488281 27.0686 5.21489 36.5957 15.0827 45.3706C19.6547 49.4285 24.6701 52.9559 30.0329 55.8866C30.3258 56.0378 30.6733 56.0378 30.9661 55.8866C36.327 52.9559 41.3408 49.428 45.9113 45.3706C55.7841 36.5957 60.9995 27.0686 60.9995 17.8183C60.9995 8.32699 53.1611 0 44.2245 0V0ZM30.4995 53.8244C26.7654 51.7607 2.03285 37.3429 2.03285 17.8183C2.03285 9.41131 8.92066 2.03638 16.7745 2.03638C22.0951 2.04583 26.9998 4.92043 29.6139 9.56195C29.8095 9.86124 30.1426 10.0412 30.4995 10.0412C30.8564 10.0412 31.1895 9.86124 31.3851 9.56195C33.9993 4.92043 38.9039 2.04583 44.2245 2.03638C52.0784 2.03638 58.9662 9.41131 58.9662 17.8183C58.9662 37.3429 34.2336 51.7607 30.4995 53.8244Z" fill="#403B3B"/>
</svg>
