<svg width="598" height="276" viewBox="0 0 598 276" fill="none" xmlns="http://www.w3.org/2000/svg">
<path d="M65.4496 147.54C69.8696 147.54 74.573 148.05 79.5596 149.07C84.6596 149.977 89.533 151.507 94.1796 153.66C98.9396 155.7 102.906 158.363 106.08 161.65L97.0696 172.19C93.5563 169.357 90.2696 167.033 87.2096 165.22C84.1496 163.407 80.9196 162.047 77.5196 161.14C74.233 160.233 70.2096 159.78 65.4496 159.78C57.9696 159.78 51.623 161.197 46.4096 164.03C41.3096 166.863 37.1163 170.717 33.8296 175.59C30.6563 180.463 28.333 185.96 26.8596 192.08C25.3863 198.2 24.6496 204.547 24.6496 211.12C24.6496 217.353 25.3296 223.53 26.6896 229.65C28.0496 235.657 30.2596 241.153 33.3196 246.14C36.3796 251.127 40.403 255.093 45.3896 258.04C50.3763 260.987 56.4963 262.46 63.7496 262.46C69.7563 262.46 74.913 261.157 79.2196 258.55C83.6396 255.83 87.0396 252.203 89.4196 247.67C91.913 243.023 93.1596 237.81 93.1596 232.03V220.81H62.7296L64.7696 209.25H109.14V244.78C109.14 249.427 109.31 254.13 109.65 258.89C110.103 263.65 110.443 268.353 110.67 273H102.17L96.7296 260.08C91.743 265.407 86.3596 269.26 80.5796 271.64C74.913 273.907 68.3963 275.04 61.0296 275.04C52.0763 275.04 44.2563 273.397 37.5696 270.11C30.9963 266.71 25.4996 262.12 21.0796 256.34C16.6596 250.447 13.373 243.76 11.2196 236.28C9.0663 228.8 7.98963 220.923 7.98963 212.65C7.98963 200.523 10.0863 189.587 14.2796 179.84C18.5863 169.98 24.9896 162.16 33.4896 156.38C41.9896 150.487 52.643 147.54 65.4496 147.54ZM187.855 274.87C178.675 274.87 170.628 273.17 163.715 269.77C156.915 266.37 151.248 261.723 146.715 255.83C142.182 249.823 138.782 243.023 136.515 235.43C134.248 227.837 133.115 219.79 133.115 211.29C133.115 202.79 134.192 194.743 136.345 187.15C138.612 179.443 142.012 172.643 146.545 166.75C151.078 160.743 156.802 156.04 163.715 152.64C170.628 149.24 178.732 147.54 188.025 147.54C197.318 147.54 205.365 149.24 212.165 152.64C219.078 156.04 224.802 160.743 229.335 166.75C233.868 172.643 237.212 179.443 239.365 187.15C241.632 194.743 242.765 202.79 242.765 211.29C242.765 219.79 241.632 227.893 239.365 235.6C237.098 243.193 233.698 249.937 229.165 255.83C224.632 261.723 218.908 266.37 211.995 269.77C205.195 273.17 197.148 274.87 187.855 274.87ZM188.025 263.31C195.278 263.31 201.342 261.78 206.215 258.72C211.088 255.66 214.998 251.58 217.945 246.48C220.892 241.38 222.988 235.77 224.235 229.65C225.595 223.53 226.275 217.41 226.275 211.29C226.275 205.17 225.595 199.05 224.235 192.93C222.988 186.81 220.892 181.257 217.945 176.27C214.998 171.17 211.032 167.09 206.045 164.03C201.172 160.97 195.165 159.44 188.025 159.44C180.885 159.44 174.822 160.97 169.835 164.03C164.962 167.09 161.052 171.17 158.105 176.27C155.272 181.37 153.175 186.98 151.815 193.1C150.568 199.22 149.945 205.34 149.945 211.46C149.945 217.58 150.568 223.7 151.815 229.82C153.175 235.827 155.272 241.38 158.105 246.48C161.052 251.58 164.962 255.66 169.835 258.72C174.822 261.78 180.885 263.31 188.025 263.31ZM318.297 274.87C309.117 274.87 301.07 273.17 294.157 269.77C287.357 266.37 281.69 261.723 277.157 255.83C272.623 249.823 269.223 243.023 266.957 235.43C264.69 227.837 263.557 219.79 263.557 211.29C263.557 202.79 264.633 194.743 266.787 187.15C269.053 179.443 272.453 172.643 276.987 166.75C281.52 160.743 287.243 156.04 294.157 152.64C301.07 149.24 309.173 147.54 318.467 147.54C327.76 147.54 335.807 149.24 342.607 152.64C349.52 156.04 355.243 160.743 359.777 166.75C364.31 172.643 367.653 179.443 369.807 187.15C372.073 194.743 373.207 202.79 373.207 211.29C373.207 219.79 372.073 227.893 369.807 235.6C367.54 243.193 364.14 249.937 359.607 255.83C355.073 261.723 349.35 266.37 342.437 269.77C335.637 273.17 327.59 274.87 318.297 274.87ZM318.467 263.31C325.72 263.31 331.783 261.78 336.657 258.72C341.53 255.66 345.44 251.58 348.387 246.48C351.333 241.38 353.43 235.77 354.677 229.65C356.037 223.53 356.717 217.41 356.717 211.29C356.717 205.17 356.037 199.05 354.677 192.93C353.43 186.81 351.333 181.257 348.387 176.27C345.44 171.17 341.473 167.09 336.487 164.03C331.613 160.97 325.607 159.44 318.467 159.44C311.327 159.44 305.263 160.97 300.277 164.03C295.403 167.09 291.493 171.17 288.547 176.27C285.713 181.37 283.617 186.98 282.257 193.1C281.01 199.22 280.387 205.34 280.387 211.46C280.387 217.58 281.01 223.7 282.257 229.82C283.617 235.827 285.713 241.38 288.547 246.48C291.493 251.58 295.403 255.66 300.277 258.72C305.263 261.78 311.327 263.31 318.467 263.31ZM497.189 211.46C497.189 223.36 495.149 233.957 491.069 243.25C487.102 252.43 480.982 259.683 472.709 265.01C464.435 270.337 453.895 273 441.089 273H400.799V160.46C400.799 160.347 400.572 159.44 400.119 157.74C399.779 156.04 399.439 154.283 399.099 152.47C398.759 150.657 398.532 149.58 398.419 149.24H430.209C444.035 149.24 455.935 151.337 465.909 155.53C475.882 159.61 483.589 166.24 489.029 175.42C494.469 184.487 497.189 196.5 497.189 211.46ZM480.699 211.12C480.699 193.213 476.279 180.407 467.439 172.7C458.712 164.88 445.905 160.97 429.019 160.97H416.609V261.27H439.049C449.362 261.27 457.522 259.003 463.529 254.47C469.649 249.937 474.012 243.873 476.619 236.28C479.339 228.687 480.699 220.3 480.699 211.12ZM557.746 147.54C563.412 147.54 568.909 148.333 574.236 149.92C579.676 151.507 584.832 153.773 589.706 156.72L581.886 168.11C578.372 165.503 574.519 163.463 570.326 161.99C566.246 160.403 561.996 159.61 557.576 159.61C551.569 159.61 546.469 161.14 542.276 164.2C538.082 167.147 535.986 171.907 535.986 178.48C535.986 182.107 536.949 185.223 538.876 187.83C540.916 190.323 543.579 192.533 546.866 194.46C550.152 196.387 553.722 198.257 557.576 200.07C561.542 201.883 565.566 203.867 569.646 206.02C573.839 208.173 577.636 210.723 581.036 213.67C584.549 216.503 587.326 220.017 589.366 224.21C591.519 228.29 592.596 233.333 592.596 239.34C592.596 247.5 590.612 254.243 586.646 259.57C582.679 264.783 577.466 268.693 571.006 271.3C564.546 273.793 557.576 275.04 550.096 275.04C543.976 275.04 538.026 274.247 532.246 272.66C526.579 270.96 521.026 268.693 515.586 265.86L521.706 251.92C525.446 255.093 529.979 257.7 535.306 259.74C540.632 261.78 545.732 262.8 550.606 262.8C554.346 262.8 558.142 262.12 561.996 260.76C565.849 259.287 569.079 256.963 571.686 253.79C574.292 250.617 575.596 246.537 575.596 241.55C575.596 236.563 574.406 232.483 572.026 229.31C569.646 226.023 566.529 223.303 562.676 221.15C558.822 218.883 554.742 216.73 550.436 214.69C546.696 212.877 542.956 211.007 539.216 209.08C535.476 207.153 532.076 204.887 529.016 202.28C525.956 199.673 523.519 196.557 521.706 192.93C519.892 189.303 518.986 184.94 518.986 179.84C518.986 172.7 520.856 166.75 524.596 161.99C528.449 157.23 533.322 153.66 539.216 151.28C545.222 148.787 551.399 147.54 557.746 147.54Z" fill="#403B3B"/>
<path d="M144.116 102.746H142.116V104.746H144.116V102.746ZM186.948 102.746H188.948V100.746H186.948V102.746ZM186.948 123V125H188.948V123H186.948ZM119.712 123H117.712V125H119.712V123ZM119.712 2.14062V0.140625H117.712V2.14062H119.712ZM144.116 2.14062H146.116V0.140625H144.116V2.14062ZM144.116 104.746H186.948V100.746H144.116V104.746ZM184.948 102.746V123H188.948V102.746H184.948ZM186.948 121H119.712V125H186.948V121ZM121.712 123V2.14062H117.712V123H121.712ZM119.712 4.14062H144.116V0.140625H119.712V4.14062ZM142.116 2.14062V102.746H146.116V2.14062H142.116ZM274.392 111.213L272.874 109.911L272.869 109.916L274.392 111.213ZM210.559 111.379L209.049 112.691L209.053 112.696L210.559 111.379ZM198.772 74.0254H196.771L196.772 74.0392L198.772 74.0254ZM210.31 14.5088L211.851 15.7837L211.854 15.7792L210.31 14.5088ZM274.143 14.2598L272.614 15.5492L272.618 15.5537L274.143 14.2598ZM285.93 52.7754H287.93L287.93 52.762L285.93 52.7754ZM256.794 28.8691L255.066 29.8769L256.794 28.8691ZM227.99 28.6201L229.699 29.66L229.704 29.6518L227.99 28.6201ZM223.176 51.9453L221.176 51.9241L221.176 51.9347V51.9453H223.176ZM227.907 96.8525L226.212 97.9142L226.218 97.9226L227.907 96.8525ZM256.711 97.0186L258.398 98.0923L258.404 98.0837L256.711 97.0186ZM261.442 74.1914L263.442 74.2022V74.1914H261.442ZM283.93 73.4443C283.93 89.3588 280.156 101.424 272.874 109.911L275.909 112.515C284.012 103.072 287.93 89.9583 287.93 73.4443H283.93ZM272.869 109.916C265.674 118.363 255.646 122.66 242.517 122.66V126.66C256.614 126.66 267.836 121.993 275.914 112.51L272.869 109.916ZM242.517 122.66C229.438 122.66 219.372 118.414 212.064 110.062L209.053 112.696C217.24 122.052 228.479 126.66 242.517 126.66V122.66ZM212.068 110.067C204.73 101.628 200.88 89.6969 200.771 74.0116L196.772 74.0392C196.884 90.3395 200.893 103.311 209.049 112.691L212.068 110.067ZM200.772 74.0254V53.3564H196.772V74.0254H200.772ZM200.772 53.3564C200.772 37.0464 204.55 24.6076 211.851 15.7837L208.769 13.2338C200.685 23.0037 196.772 36.4633 196.772 53.3564H200.772ZM211.854 15.7792C219.115 6.95202 229.193 2.48047 242.351 2.48047V-1.51953C228.171 -1.51953 216.889 3.36114 208.765 13.2383L211.854 15.7792ZM242.351 2.48047C255.287 2.48047 265.294 6.87057 272.614 15.5492L275.671 12.9704C267.496 3.27656 256.308 -1.51953 242.351 -1.51953V2.48047ZM272.618 15.5537C279.963 24.211 283.821 36.5338 283.93 52.7888L287.93 52.762C287.817 35.9246 283.817 22.5703 275.668 12.9658L272.618 15.5537ZM283.93 52.7754V73.4443H287.93V52.7754H283.93ZM263.442 53.1904C263.442 42.171 261.889 33.6341 258.522 27.8614L255.066 29.8769C257.897 34.7292 259.442 42.4065 259.442 53.1904H263.442ZM258.522 27.8614C255.038 21.8895 249.538 18.9004 242.351 18.9004V22.9004C248.223 22.9004 252.352 25.2238 255.066 29.8769L258.522 27.8614ZM242.351 18.9004C235.241 18.9004 229.77 21.7866 226.277 27.5884L229.704 29.6518C232.408 25.1607 236.511 22.9004 242.351 22.9004V18.9004ZM226.282 27.5802C222.903 33.1316 221.288 41.3415 221.176 51.9241L225.176 51.9665C225.285 41.6311 226.88 34.2909 229.699 29.66L226.282 27.5802ZM221.176 51.9453V73.4443H225.176V51.9453H221.176ZM221.176 73.4443C221.176 84.1357 222.757 92.3978 226.212 97.9142L229.602 95.7909C226.749 91.2356 225.176 83.8923 225.176 73.4443H221.176ZM226.218 97.9226C229.787 103.558 235.341 106.323 242.517 106.323V102.323C236.522 102.323 232.336 100.108 229.597 95.7824L226.218 97.9226ZM242.517 106.323C249.481 106.323 254.89 103.606 258.398 98.0923L255.024 95.9448C252.334 100.171 248.28 102.323 242.517 102.323V106.323ZM258.404 98.0837C261.802 92.6828 263.386 84.6188 263.442 74.2022L259.442 74.1807C259.388 84.35 257.818 91.504 255.018 95.9534L258.404 98.0837ZM263.442 74.1914V53.1904H259.442V74.1914H263.442ZM346.064 89.7969L344.115 90.2471L348.012 90.2489L346.064 89.7969ZM366.401 2.14062V0.140625H364.812L364.453 1.68862L366.401 2.14062ZM393.627 2.14062L395.549 2.69495L396.286 0.140625H393.627V2.14062ZM358.764 123V125H360.269L360.686 123.554L358.764 123ZM333.364 123L331.441 123.551L331.856 125H333.364V123ZM298.749 2.14062V0.140625H296.096L296.827 2.69129L298.749 2.14062ZM325.81 2.14062L327.759 1.69037L327.401 0.140625H325.81V2.14062ZM348.012 90.2489L368.349 2.59263L364.453 1.68862L344.116 89.3449L348.012 90.2489ZM366.401 4.14062H393.627V0.140625H366.401V4.14062ZM391.706 1.5863L356.842 122.446L360.686 123.554L395.549 2.69495L391.706 1.5863ZM358.764 121H333.364V125H358.764V121ZM335.286 122.449L300.672 1.58996L296.827 2.69129L331.441 123.551L335.286 122.449ZM298.749 4.14062H325.81V0.140625H298.749V4.14062ZM323.861 2.59088L344.115 90.2471L348.013 89.3466L327.759 1.69037L323.861 2.59088ZM472.521 70.7051V72.7051H474.521V70.7051H472.521ZM434.504 70.7051V68.7051H432.504V70.7051H434.504ZM434.504 102.746H432.504V104.746H434.504V102.746ZM479.494 102.746H481.494V100.746H479.494V102.746ZM479.494 123V125H481.494V123H479.494ZM410.099 123H408.099V125H410.099V123ZM410.099 2.14062V0.140625H408.099V2.14062H410.099ZM479.328 2.14062H481.328V0.140625H479.328V2.14062ZM479.328 22.4775V24.4775H481.328V22.4775H479.328ZM434.504 22.4775V20.4775H432.504V22.4775H434.504ZM434.504 51.0322H432.504V53.0322H434.504V51.0322ZM472.521 51.0322H474.521V49.0322H472.521V51.0322ZM472.521 68.7051H434.504V72.7051H472.521V68.7051ZM432.504 70.7051V102.746H436.504V70.7051H432.504ZM434.504 104.746H479.494V100.746H434.504V104.746ZM477.494 102.746V123H481.494V102.746H477.494ZM479.494 121H410.099V125H479.494V121ZM412.099 123V2.14062H408.099V123H412.099ZM410.099 4.14062H479.328V0.140625H410.099V4.14062ZM477.328 2.14062V22.4775H481.328V2.14062H477.328ZM479.328 20.4775H434.504V24.4775H479.328V20.4775ZM432.504 22.4775V51.0322H436.504V22.4775H432.504ZM434.504 53.0322H472.521V49.0322H434.504V53.0322ZM470.521 51.0322V70.7051H474.521V51.0322H470.521Z" fill="#403B3B"/>
</svg>
